/* XPM */
static char * firefox_xpm[] = {
"32 32 744 2",
"  	c None",
". 	c #113766",
"+ 	c #164070",
"@ 	c #346C94",
"# 	c #66A4C1",
"$ 	c #9DD3E2",
"% 	c #C6F0F4",
"& 	c #DCFDFE",
"* 	c #D3F0F4",
"= 	c #B7D9E2",
"- 	c #82B3C8",
"; 	c #42799E",
"> 	c #164170",
", 	c #12396C",
"' 	c #2C659C",
") 	c #7BD1ED",
"! 	c #A6F7FF",
"~ 	c #C3FAFF",
"{ 	c #D8FAFF",
"] 	c #DAFAFF",
"^ 	c #DBFAFF",
"/ 	c #D9FAFF",
"( 	c #D7F9FF",
"_ 	c #D7FBFF",
": 	c #C8FFFF",
"< 	c #79C4D6",
"[ 	c #56778B",
"} 	c #27486E",
"| 	c #C35822",
"1 	c #0F3463",
"2 	c #143A71",
"3 	c #2F65B3",
"4 	c #6AB9E8",
"5 	c #82E0FD",
"6 	c #ACF1FF",
"7 	c #C9F0F5",
"8 	c #CCF4FC",
"9 	c #CEF6FC",
"0 	c #CFF6FC",
"a 	c #CCF5FC",
"b 	c #C6F4FC",
"c 	c #BFF4FC",
"d 	c #9FE9F8",
"e 	c #386891",
"f 	c #6F7F8A",
"g 	c #6D8383",
"h 	c #203C65",
"i 	c #96543E",
"j 	c #9A1F0B",
"k 	c #CD581E",
"l 	c #433F4A",
"m 	c #08275E",
"n 	c #092F68",
"o 	c #1D4C9B",
"p 	c #3572C7",
"q 	c #60AEE4",
"r 	c #8B9DA6",
"s 	c #C2744A",
"t 	c #C5A88C",
"u 	c #C1F6FD",
"v 	c #C5F4FC",
"w 	c #C5F4FB",
"x 	c #C3F2FA",
"y 	c #BBF1FA",
"z 	c #B0EFFA",
"A 	c #8FE1F2",
"B 	c #64BFE2",
"C 	c #194783",
"D 	c #606E72",
"E 	c #BCC581",
"F 	c #836D6B",
"G 	c #A24E27",
"H 	c #8E0E04",
"I 	c #E55715",
"J 	c #B4461C",
"K 	c #272E50",
"L 	c #484F6A",
"M 	c #5E688A",
"N 	c #5574AC",
"O 	c #995F5A",
"P 	c #CA3900",
"Q 	c #8D150A",
"R 	c #709DB6",
"S 	c #B5F0FC",
"T 	c #BCF0FB",
"U 	c #BEF2FC",
"V 	c #BCF1FB",
"W 	c #B8EFFA",
"X 	c #A0E7F5",
"Y 	c #8CDFF1",
"Z 	c #73CEE8",
"` 	c #52AEDC",
" .	c #5D96C1",
"..	c #3D5884",
"+.	c #5D645B",
"@.	c #E1E680",
"#.	c #8D6659",
"$.	c #B24C20",
"%.	c #921003",
"&.	c #D43E06",
"*.	c #EB6D0F",
"=.	c #E1751A",
"-.	c #E77E20",
";.	c #EB8A31",
">.	c #D96F31",
",.	c #C93C07",
"'.	c #AA2F0A",
").	c #753137",
"!.	c #7CCAE1",
"~.	c #A6ECFA",
"{.	c #B2F0FC",
"].	c #B7F2FD",
"^.	c #B3F1FC",
"/.	c #A2EAF8",
"(.	c #75D1EB",
"_.	c #64C3E3",
":.	c #5AB6DE",
"<.	c #4AA1DA",
"[.	c #3373BA",
"}.	c #96A3A0",
"|.	c #919477",
"1.	c #D4BD55",
"2.	c #E6DC72",
"3.	c #96503C",
"4.	c #A84116",
"5.	c #9D1A05",
"6.	c #EC8315",
"7.	c #ED8215",
"8.	c #EE750E",
"9.	c #E86F0E",
"0.	c #DF650E",
"a.	c #CE4F0E",
"b.	c #CC4D0F",
"c.	c #8E1105",
"d.	c #67798C",
"e.	c #87F3FC",
"f.	c #93F2FF",
"g.	c #A1F7FF",
"h.	c #A8F3FE",
"i.	c #A3EFFB",
"j.	c #99EBF9",
"k.	c #87E1F4",
"l.	c #71D0EC",
"m.	c #5CBAE4",
"n.	c #5DC3EA",
"o.	c #439FDD",
"p.	c #10316B",
"q.	c #C7C268",
"r.	c #FDF070",
"s.	c #FCD357",
"t.	c #C5A551",
"u.	c #AD632D",
"v.	c #9F310E",
"w.	c #8B0C03",
"x.	c #C25011",
"y.	c #EC760E",
"z.	c #DC530A",
"A.	c #D9530E",
"B.	c #D6510E",
"C.	c #D55410",
"D.	c #D15411",
"E.	c #D55D15",
"F.	c #AB2C08",
"G.	c #AF4723",
"H.	c #BA9570",
"I.	c #C09973",
"J.	c #94A59E",
"K.	c #8EE3F1",
"L.	c #94EDFC",
"M.	c #8CE9F8",
"N.	c #86E7F7",
"O.	c #7BE3F5",
"P.	c #6DDBF4",
"Q.	c #5FD0F3",
"R.	c #51C1F4",
"S.	c #164F93",
"T.	c #39485E",
"U.	c #FFF463",
"V.	c #F5D55F",
"W.	c #EEBB4C",
"X.	c #D8B849",
"Y.	c #99280D",
"Z.	c #941D09",
"`.	c #ED7C10",
" +	c #E05206",
".+	c #D74908",
"++	c #D4490B",
"@+	c #D24A0C",
"#+	c #D14C0E",
"$+	c #D25310",
"%+	c #D65E14",
"&+	c #AE330B",
"*+	c #A31D03",
"=+	c #E54B00",
"-+	c #F75600",
";+	c #AB6536",
">+	c #5EBBDB",
",+	c #75DAF8",
"'+	c #6FD3F2",
")+	c #6AD0F1",
"!+	c #63CEF1",
"~+	c #5BC8F1",
"{+	c #4CB3E8",
"]+	c #317BBC",
"^+	c #2B83C5",
"/+	c #112E64",
"(+	c #A49354",
"_+	c #FEE64F",
":+	c #F1C15A",
"<+	c #FFE24C",
"[+	c #982A0E",
"}+	c #8A0B03",
"|+	c #BA3F0D",
"1+	c #EB6909",
"2+	c #D84806",
"3+	c #D5480B",
"4+	c #D1450A",
"5+	c #CF450B",
"6+	c #CE480D",
"7+	c #CF4F0F",
"8+	c #D45912",
"9+	c #D6651E",
"0+	c #CB6C45",
"a+	c #FFD394",
"b+	c #D3A479",
"c+	c #4F6A8B",
"d+	c #51B1E3",
"e+	c #60C5F0",
"f+	c #5BC0EE",
"g+	c #51B3E5",
"h+	c #47A3DC",
"i+	c #44A9E7",
"j+	c #3696D9",
"k+	c #2161A3",
"l+	c #226BAD",
"m+	c #093271",
"n+	c #6F6551",
"o+	c #FFD341",
"p+	c #FADC59",
"q+	c #FDE34C",
"r+	c #AE4E15",
"s+	c #8E1004",
"t+	c #D35810",
"u+	c #E25509",
"v+	c #D64709",
"w+	c #D2470B",
"x+	c #D0450B",
"y+	c #CE460C",
"z+	c #CE4A0E",
"A+	c #CF5111",
"B+	c #D56018",
"C+	c #EB822D",
"D+	c #EF944B",
"E+	c #7C747F",
"F+	c #1F4D86",
"G+	c #2973B2",
"H+	c #51B4E9",
"I+	c #50B5EA",
"J+	c #4DB3EB",
"K+	c #409BD9",
"L+	c #2E72B2",
"M+	c #2C76B8",
"N+	c #2D90D5",
"O+	c #1F67A9",
"P+	c #1A4C8A",
"Q+	c #244980",
"R+	c #54504E",
"S+	c #FCBA38",
"T+	c #FCD950",
"U+	c #FCDF4D",
"V+	c #C06216",
"W+	c #8F1406",
"X+	c #E06813",
"Y+	c #DD4E0B",
"Z+	c #D4490C",
"`+	c #D1460B",
" @	c #CF470C",
".@	c #CF4C0E",
"+@	c #D25312",
"@@	c #D9631B",
"#@	c #E17727",
"$@	c #F58D31",
"%@	c #E88936",
"&@	c #155091",
"*@	c #3397DA",
"=@	c #42A8E4",
"-@	c #41A5E2",
";@	c #3E9FDD",
">@	c #327EBD",
",@	c #307EBE",
"'@	c #2567A6",
")@	c #1D5899",
"!@	c #1C5B9C",
"~@	c #194F90",
"{@	c #0C3A7B",
"]@	c #848C83",
"^@	c #7C7054",
"/@	c #F5B843",
"(@	c #F7C542",
"_@	c #FDDE4F",
":@	c #BC5A18",
"<@	c #8C0F05",
"[@	c #E66E14",
"}@	c #D8490B",
"|@	c #D24A0D",
"1@	c #D0490D",
"2@	c #D14E0F",
"3@	c #D45813",
"4@	c #CF5916",
"5@	c #C45219",
"6@	c #C2551E",
"7@	c #C1773D",
"8@	c #E48C3A",
"9@	c #225A93",
"0@	c #2C8BD0",
"a@	c #3291D3",
"b@	c #3392D3",
"c@	c #3393D4",
"d@	c #2871B2",
"e@	c #1E5393",
"f@	c #1B5292",
"g@	c #194E8E",
"h@	c #174A89",
"i@	c #164889",
"j@	c #052869",
"k@	c #797D64",
"l@	c #FFE44F",
"m@	c #F7C945",
"n@	c #F6C43F",
"o@	c #FFDB40",
"p@	c #9F4218",
"q@	c #890B04",
"r@	c #870702",
"s@	c #E66711",
"t@	c #DD510A",
"u@	c #D14A0E",
"v@	c #D14C0F",
"w@	c #D55812",
"x@	c #C95112",
"y@	c #9B1E06",
"z@	c #981100",
"A@	c #7B1815",
"B@	c #0A3779",
"C@	c #1E4073",
"D@	c #1B5390",
"E@	c #2279C0",
"F@	c #267EC5",
"G@	c #2780C5",
"H@	c #2780C6",
"I@	c #2477BC",
"J@	c #1C5EA1",
"K@	c #185090",
"L@	c #154686",
"M@	c #154484",
"N@	c #134282",
"O@	c #032769",
"P@	c #696D56",
"Q@	c #FFE044",
"R@	c #F8C734",
"S@	c #FBD23C",
"T@	c #F8C52B",
"U@	c #832C19",
"V@	c #870802",
"W@	c #8B0B03",
"X@	c #DC500C",
"Y@	c #E4560B",
"Z@	c #D0490E",
"`@	c #D14F10",
" #	c #D75F14",
".#	c #AF340A",
"+#	c #9A1803",
"@#	c #AE2300",
"##	c #A6411B",
"$#	c #1D67AC",
"%#	c #1065B7",
"&#	c #1B68B0",
"*#	c #1F70B9",
"=#	c #1D71BC",
"-#	c #1770C0",
";#	c #136EC0",
">#	c #196FBD",
",#	c #2073BD",
"'#	c #185498",
")#	c #123D7C",
"!#	c #123D7D",
"~#	c #113B7B",
"{#	c #012366",
"]#	c #5F614E",
"^#	c #FFD74D",
"/#	c #F4B82D",
"(#	c #FBCF2F",
"_#	c #D98A19",
":#	c #834123",
"<#	c #8B0E04",
"[#	c #920F03",
"}#	c #CB3D0A",
"|#	c #E14D0A",
"1#	c #CE4A0F",
"2#	c #D15211",
"3#	c #D45E15",
"4#	c #B33207",
"5#	c #B12903",
"6#	c #BC3001",
"7#	c #DB590A",
"8#	c #9C6F4D",
"9#	c #2162A5",
"0#	c #0B61B7",
"a#	c #0D63B8",
"b#	c #1E65AC",
"c#	c #506D8B",
"d#	c #687D88",
"e#	c #3E73A1",
"f#	c #125DAC",
"g#	c #124385",
"h#	c #103776",
"i#	c #0F3675",
"j#	c #0C3373",
"k#	c #082661",
"l#	c #625C44",
"m#	c #FFCF41",
"n#	c #F4B82C",
"o#	c #F8C425",
"p#	c #EDA91D",
"q#	c #DF951E",
"r#	c #9F2C09",
"s#	c #951003",
"t#	c #B82A08",
"u#	c #E04309",
"v#	c #CD490F",
"w#	c #D05112",
"x#	c #D55F15",
"y#	c #C54208",
"z#	c #C43601",
"A#	c #D24001",
"B#	c #DA570A",
"C#	c #EB7616",
"D#	c #C9742D",
"E#	c #866959",
"F#	c #83685B",
"G#	c #BC6E32",
"H#	c #E77C1C",
"I#	c #F4972F",
"J#	c #F8C45D",
"K#	c #738889",
"L#	c #084290",
"M#	c #0C306F",
"N#	c #0B2F6D",
"O#	c #021D5D",
"P#	c #666049",
"Q#	c #E8A725",
"R#	c #FBC128",
"S#	c #F7B922",
"T#	c #F2AE1C",
"U#	c #EFA11A",
"V#	c #DA8118",
"W#	c #901403",
"X#	c #8F0B02",
"Y#	c #A51B04",
"Z#	c #D93507",
"`#	c #C9420D",
" $	c #CE5012",
".$	c #D35D15",
"+$	c #D45910",
"@$	c #D74701",
"#$	c #E25102",
"$$	c #D94F05",
"%$	c #BC440F",
"&$	c #DD6A16",
"*$	c #ED7714",
"=$	c #EC7814",
"-$	c #E67314",
";$	c #E1680F",
">$	c #CA560E",
",$	c #8E5D3F",
"'$	c #535C6F",
")$	c #073E8B",
"!$	c #082967",
"~$	c #052464",
"{$	c #031955",
"]$	c #B78E2C",
"^$	c #FAA31A",
"/$	c #F8BA21",
"($	c #F3AA18",
"_$	c #EC9A15",
":$	c #EC9C1C",
"<$	c #AE3C06",
"[$	c #930E02",
"}$	c #C52606",
"|$	c #BB2E08",
"1$	c #C4400E",
"2$	c #CF5614",
"3$	c #D56116",
"4$	c #DB5D0E",
"5$	c #E05807",
"6$	c #E4600B",
"7$	c #B63607",
"8$	c #9F2006",
"9$	c #BE400B",
"0$	c #C8490B",
"a$	c #C5460A",
"b$	c #913A1F",
"c$	c #1F2B5B",
"d$	c #012D7A",
"e$	c #01307D",
"f$	c #063581",
"g$	c #021F5F",
"h$	c #00175E",
"i$	c #0D1F4E",
"j$	c #EBA21A",
"k$	c #EF9916",
"l$	c #F6B119",
"m$	c #ED9812",
"n$	c #EC9A1B",
"o$	c #E5810C",
"p$	c #901103",
"q$	c #900B02",
"r$	c #A21404",
"s$	c #A71A05",
"t$	c #B12809",
"u$	c #C94B11",
"v$	c #D05914",
"w$	c #D66417",
"x$	c #DA6514",
"y$	c #DF6611",
"z$	c #E26912",
"A$	c #A43C15",
"B$	c #561827",
"C$	c #3E1D3C",
"D$	c #25224E",
"E$	c #052467",
"F$	c #012E81",
"G$	c #013082",
"H$	c #012A76",
"I$	c #001F63",
"J$	c #011C68",
"K$	c #02185F",
"L$	c #735531",
"M$	c #FCA91D",
"N$	c #EF9C12",
"O$	c #F09E11",
"P$	c #E6860A",
"Q$	c #E78007",
"R$	c #B44008",
"S$	c #8F110A",
"T$	c #970E03",
"U$	c #9E1204",
"V$	c #9E1505",
"W$	c #B9350D",
"X$	c #CD5113",
"Y$	c #D05A14",
"Z$	c #DA6A18",
"`$	c #DE6E18",
" %	c #DE731B",
".%	c #804D35",
"+%	c #2C2E55",
"@%	c #032369",
"#%	c #012178",
"$%	c #00104D",
"%%	c #000638",
"&%	c #000030",
"*%	c #01042A",
"=%	c #292B47",
"-%	c #5F4138",
";%	c #EA981B",
">%	c #F1AC2A",
",%	c #E78608",
"'%	c #E98A0B",
")%	c #E27505",
"!%	c #C05507",
"~%	c #851815",
"{%	c #A74031",
"]%	c #9A1003",
"^%	c #920B03",
"/%	c #9C1505",
"(%	c #C44311",
"_%	c #CC5013",
":%	c #D56216",
"<%	c #D86818",
"[%	c #DC6D19",
"}%	c #E87317",
"|%	c #E77315",
"1%	c #934F2B",
"2%	c #3C2C45",
"3%	c #221425",
"4%	c #28131A",
"5%	c #502A19",
"6%	c #9A5713",
"7%	c #ED7B05",
"8%	c #ED7C04",
"9%	c #F29E1D",
"0%	c #E58714",
"a%	c #E37E0D",
"b%	c #D3670A",
"c%	c #AA2E02",
"d%	c #7D1C16",
"e%	c #99331C",
"f%	c #910A02",
"g%	c #980E03",
"h%	c #8A0802",
"i%	c #A21E08",
"j%	c #C64410",
"k%	c #CA4E12",
"l%	c #CF5713",
"m%	c #D35E15",
"n%	c #D76417",
"o%	c #D96918",
"p%	c #DB6B17",
"q%	c #E56E13",
"r%	c #E26D0F",
"s%	c #D96910",
"t%	c #DC6B0E",
"u%	c #EA740B",
"v%	c #E86F09",
"w%	c #DE6A0A",
"x%	c #E6780D",
"y%	c #E6760A",
"z%	c #DF740A",
"A%	c #E7931F",
"B%	c #DF780F",
"C%	c #D47F19",
"D%	c #AF4D12",
"E%	c #C3580F",
"F%	c #7C0702",
"G%	c #870602",
"H%	c #A21E07",
"I%	c #C23F0E",
"J%	c #C94B10",
"K%	c #CD5111",
"L%	c #D15913",
"M%	c #D56015",
"N%	c #D66213",
"O%	c #D86311",
"P%	c #D9620F",
"Q%	c #D9630D",
"R%	c #D55E0F",
"S%	c #D1580F",
"T%	c #D75F0D",
"U%	c #DC660A",
"V%	c #E37F12",
"W%	c #ECA124",
"X%	c #EC9F20",
"Y%	c #EA9213",
"Z%	c #BE570C",
"`%	c #AA4808",
" &	c #700702",
".&	c #8F0A03",
"+&	c #910A03",
"@&	c #8A0902",
"#&	c #9D1704",
"$&	c #BB360B",
"%&	c #C9480F",
"&&	c #CE5010",
"*&	c #D25712",
"=&	c #D35A12",
"-&	c #D35910",
";&	c #D2580E",
">&	c #D2580D",
",&	c #D3580D",
"'&	c #D0550D",
")&	c #D3590D",
"!&	c #DB660C",
"~&	c #E2720D",
"{&	c #E88617",
"]&	c #E28316",
"^&	c #DA6F07",
"/&	c #B13C06",
"(&	c #892805",
"_&	c #5E0502",
":&	c #880A03",
"<&	c #990E03",
"[&	c #920C02",
"}&	c #971002",
"|&	c #AF2908",
"1&	c #C5420D",
"2&	c #D0500F",
"3&	c #D55810",
"4&	c #D95D10",
"5&	c #DB610F",
"6&	c #DE650D",
"7&	c #E1670C",
"8&	c #E2690C",
"9&	c #E36B0C",
"0&	c #E36D0D",
"a&	c #E5720F",
"b&	c #B94107",
"c&	c #9E2304",
"d&	c #981C05",
"e&	c #671203",
"f&	c #430401",
"g&	c #7F0A02",
"h&	c #940D03",
"i&	c #9B1103",
"j&	c #9A1102",
"k&	c #A41B04",
"l&	c #B82F08",
"m&	c #C7410A",
"n&	c #D04C0A",
"o&	c #D65509",
"p&	c #DB5A08",
"q&	c #DE5D07",
"r&	c #DC5D07",
"s&	c #DF6F0F",
"t&	c #E78B19",
"u&	c #D67E1B",
"v&	c #B35219",
"w&	c #A43614",
"x&	c #64150B",
"y&	c #0B0100",
"z&	c #5B0801",
"A&	c #8A0D03",
"B&	c #930E03",
"C&	c #9B1303",
"D&	c #A21903",
"E&	c #B12404",
"F&	c #BC2F04",
"G&	c #C63B04",
"H&	c #CD3F03",
"I&	c #C73E03",
"J&	c #BB3903",
"K&	c #B43A07",
"L&	c #A52E07",
"M&	c #9B2509",
"N&	c #8D2F10",
"O&	c #3E1603",
"P&	c #070100",
"Q&	c #5B0E03",
"R&	c #8F1907",
"S&	c #991806",
"T&	c #8E0F04",
"U&	c #880702",
"V&	c #8F1304",
"W&	c #951E07",
"X&	c #92290A",
"Y&	c #77290A",
"Z&	c #361704",
"`&	c #300401",
" *	c #4A0802",
".*	c #560702",
"+*	c #650B03",
"@*	c #710F04",
"#*	c #680A02",
"$*	c #5F0802",
"%*	c #520602",
"&*	c #3E0501",
"                          . . . . . . .                         ",
"                    . + @ # $ % & * = - ; > .                   ",
"                . , ' ) ! ~ { ] ^ / ( _ : < [ } .               ",
"        |     1 2 3 4 5 6 7 8 9 0 9 a b c d e f g h i           ",
"      j k l m n o p q r s t u v b w x y z A B C D E F G         ",
"      H I J K L M N O P Q R S T U V W X Y Z `  ...+.@.#.$.      ",
"      %.&.*.=.-.;.>.,.'.).!.~.{.].^./.(._.:.<.[.}.|.1.2.3.4.    ",
"      5.6.7.8.9.0.a.b.c.d.e.f.g.h.i.j.k.l.m.n.o.p.q.r.s.t.u.v.  ",
"    w.x.y.z.A.B.C.D.E.F.G.H.I.J.K.L.M.N.O.P.Q.R.S.T.U.V.W.X.Y.  ",
"    Z.`. +.+++@+#+$+%+&+*+=+-+;+>+,+'+)+!+~+{+]+^+/+(+_+:+<+[+  ",
"  }+|+1+2+3+4+5+6+7+8+9+0+a+b+c+d+e+f+g+h+i+j+k+l+m+n+o+p+q+r+  ",
"  s+t+u+v+w+x+y+z+A+B+C+D+E+F+G+H+I+J+K+L+M+N+O+P+Q+R+S+T+U+V+W+",
"  s+X+Y+Z+`+ @.@+@@@#@$@%@&@*@=@-@;@>@,@'@)@!@~@{@]@^@/@(@_@:@<@",
"  w.[@}@|@1@2@3@4@5@6@7@8@9@0@a@b@c@d@e@f@g@h@i@j@k@l@m@n@o@p@q@",
"  r@s@t@u@v@w@x@y@z@A@B@C@D@E@F@G@H@I@J@K@L@M@N@O@P@Q@R@S@T@U@V@",
"  W@X@Y@Z@`@ #.#+#@###$#%#&#*#=#-#;#>#,#'#)#!#~#{#]#^#/#(#_#:#<#",
"  [#}#|#1#2#3#4#5#6#7#8#9#0#a#b#c#d#e#f#g#h#i#j#k#l#m#n#o#p#q#r#",
"  s#t#u#v#w#x#y#z#A#B#C#D#E#F#G#H#I#J#K#L#M#N#O#P#Q#R#S#T#U#V#W#",
"  X#Y#Z#`# $.$+$@$#$$$%$&$*$=$-$;$>$,$'$)$!$~${$]$^$/$($_$:$<$  ",
"    [$}$|$1$2$3$4$5$6$7$8$9$0$a$b$c$d$e$f$g$h$i$j$k$l$m$n$o$p$  ",
"    q$r$s$t$u$v$w$x$y$z$A$B$C$D$E$F$G$H$I$J$K$L$M$N$O$P$Q$R$S$  ",
"      T$U$V$W$X$Y$w$Z$`$ %.%+%@%#%$%%%&%*%=%-%;%>%,%'%)%!%~%{%  ",
"      X#]%^%/%(%_%v$:%<%[%}%|%1%2%3%4%5%6%7%8%9%0%a%b%c%d%e%    ",
"        f%g%h%i%j%k%l%m%n%o%p%q%r%s%t%u%v%w%x%y%z%A%B%C%D%E%    ",
"        F%^%f%G%H%I%J%K%L%.$M%N%O%P%Q%R%S%T%U%V%W%X%Y%Z%`%      ",
"           &.&+&@&#&$&%&&&*&=&-&;&>&,&'&)&!&~&{&]&^&/&(&        ",
"            _&:&<&[&}&|&1&2&3&4&5&6&7&8&9&0&a&b&c&d&e&          ",
"              f&g&h&i&j&k&l&m&n&o&p&q&r&s&t&u&v&w&x&            ",
"                y&z&A&B&C&D&E&F&G&H&I&J&K&L&M&N&O&              ",
"                    P&Q&R&S&T&W@U&W@V&W&X&Y&Z&                  ",
"                        `& *.*+*@*#*$*%*&*                      ",
"                                                                "};
